<svg width="180" height="180" version="1.1" xmlns="http://www.w3.org/2000/svg" ><path fill="rgb(0,0,0)" stroke="rgb(0,0,0)" stroke-width="1" opacity="0" d="M 0 0 L 180 0 L 180 180 L 0 180 L 0 0 Z M 24 38 L 22 40 L 20 88 L 15 106 L 11 110 Q 6 109 5 111 L 3 112 L 3 139 L 5 140 L 14 140 L 16 137 L 16 122 L 17 121 L 78 121 L 79 123 L 79 139 L 81 140 L 90 140 L 91 139 L 91 111 Q 88 109 80 110 L 80 41 L 79 40 L 79 38 L 24 38 Z M 105 38 L 99 39 Q 98 44 101 45 L 103 46 L 103 120 L 105 121 L 116 121 L 139 91 L 143 88 Q 142 84 145 85 L 161 63 L 161 120 L 164 122 L 174 122 L 174 39 L 174 38 L 165 38 Q 139 67 117 100 L 116 100 L 116 39 L 116 38 L 105 38 Z " /><path fill="rgb(0,0,0)" stroke="rgb(0,0,0)" stroke-width="1" opacity="0" d="M 34 51 L 67 51 L 67 110 L 26 109.5 L 30 101.5 L 32 92.5 L 34 51 Z " /><path fill="rgb(130,81,77)" stroke="rgb(130,81,77)" stroke-width="1" opacity="0.9019607843137255" d="M 23.5 38 L 79 38.5 L 78.5 40 L 80 40.5 L 80 109.5 L 80.5 110 L 88.5 110 L 91 111 L 91 138.5 L 89.5 140 L 81.5 140 L 81 138.5 L 82.5 139 Q 88.8 140.3 90 136.5 L 90 113.5 L 88.5 112 L 80.5 112 L 79 110.5 L 79 42.5 L 76.5 39 L 23.5 39 L 23 39.5 L 23 55.5 L 22 56.5 L 22 79.5 L 19.5 93 L 19 88.5 L 21 79.5 L 22 39.5 L 23.5 38 Z " /><path fill="rgb(130,81,77)" stroke="rgb(130,81,77)" stroke-width="1" opacity="0.9019607843137255" d="M 164.5 39 L 160 44.5 L 117.5 101 L 117 99.5 L 154 50.5 L 164.5 39 Z " /><path fill="rgb(130,81,77)" stroke="rgb(130,81,77)" stroke-width="1" opacity="0.9019607843137255" d="M 99.5 41 L 100 43 L 104 44.5 L 104 117.5 L 106 120.5 L 104 119.5 L 103 117.5 L 103 45 L 99 43.5 L 99.5 41 Z " /><path fill="rgb(130,81,77)" stroke="rgb(130,81,77)" stroke-width="1" opacity="0.9019607843137255" d="M 115.5 41 L 116 99.5 L 115 99.5 L 115.5 41 Z " /><path fill="rgb(130,81,77)" stroke="rgb(130,81,77)" stroke-width="1" opacity="0.9019607843137255" d="M 32 49 L 66.5 49 L 68 50.5 L 68 110.5 L 66.5 112 L 24.5 112 L 23 110.5 L 28 101.5 L 30 92.5 L 32 49 Z M 34 51 L 32 93 L 30 102 L 26 110 L 27 111 L 28 110 L 67 110 L 67 51 L 34 51 Z " /><path fill="rgb(130,81,77)" stroke="rgb(130,81,77)" stroke-width="1" opacity="0.9019607843137255" d="M 162.5 59 L 163 119.5 L 165 121.5 L 163.5 122 L 161 119.5 L 161 61.5 L 162.5 59 Z " /><path fill="rgb(130,81,77)" stroke="rgb(130,81,77)" stroke-width="1" opacity="0.9019607843137255" d="M 18.5 94 L 19 97.5 L 18 97.5 L 18.5 94 Z " /><path fill="rgb(130,81,77)" stroke="rgb(130,81,77)" stroke-width="1" opacity="0.9019607843137255" d="M 17.5 99 L 18 101.5 L 14.5 107 L 15 105.5 L 17.5 99 Z " /><path fill="rgb(130,81,77)" stroke="rgb(130,81,77)" stroke-width="1" opacity="0.9019607843137255" d="M 12.5 108 L 13 109.5 Q 11.3 112.8 5.5 112 L 6.5 110 Q 11.5 111 12.5 108 Z " /><path fill="rgb(130,81,77)" stroke="rgb(130,81,77)" stroke-width="1" opacity="0.9019607843137255" d="M 14 120 L 78.5 120 L 80 121.5 L 79.5 139 L 79 122.5 L 77.5 121 L 16.5 121 L 16 121.5 L 16 136.5 L 14 140 L 4 139.5 L 11.5 139 L 13 137.5 L 13 122.5 L 14 120 Z " /><path fill="rgb(169,169,169)" stroke="rgb(169,169,169)" stroke-width="1" opacity="0.7843137254901961" d="M 104.5 38 L 114.5 38 L 116 39.5 L 113.5 40 Q 106.7 38.7 103.5 41 L 101.5 40 L 99.5 41 L 100.5 39 L 104.5 38 Z " /><path fill="rgb(169,169,169)" stroke="rgb(169,169,169)" stroke-width="1" opacity="0.7843137254901961" d="M 164.5 38 L 172.5 38 L 174 39.5 L 172.5 39 L 165.5 40 L 161 44.5 L 143.5 67 Q 140 65 144.5 63 Q 145.8 65.3 147 62.5 L 146 60.5 L 150 58.5 L 149 56.5 L 153 54.5 L 152 52.5 L 156 50.5 L 155 48.5 L 160 45.5 L 159 43.5 L 164.5 38 Z " /><path fill="rgb(169,169,169)" stroke="rgb(169,169,169)" stroke-width="1" opacity="0.7843137254901961" d="M 103.5 43 L 105 44.5 L 105 117.5 L 103 118.5 L 104 117.5 L 104 44.5 L 103.5 43 Z " /><path fill="rgb(169,169,169)" stroke="rgb(169,169,169)" stroke-width="1" opacity="0.7843137254901961" d="M 163.5 59 L 164 119.5 L 163 119.5 L 163.5 59 Z " /><path fill="rgb(169,169,169)" stroke="rgb(169,169,169)" stroke-width="1" opacity="0.7843137254901961" d="M 159.5 61 Q 162.3 62.2 160 63.5 L 128.5 104 L 127 104.5 L 128 105.5 L 124.5 109 L 123 109.5 Q 125.7 111.2 121.5 113 L 120 113.5 L 121 114.5 L 117.5 118 L 116 118.5 Q 118.3 119.8 115.5 121 L 113.5 121 Q 106.7 122.8 105 119.5 L 106.5 120 Q 114.3 121.7 116 117.5 L 141.5 85 L 143 84.5 Q 140.3 82.7 144.5 81 L 146 80.5 L 145 79.5 L 148.5 76 L 150 75.5 Q 147.2 73.8 151.5 72 L 153 71.5 Q 150.3 69.8 154.5 68 L 156 67.5 L 155 66.5 L 158.5 63 L 160 62.5 L 159.5 61 Z " /><path fill="rgb(169,169,169)" stroke="rgb(169,169,169)" stroke-width="1" opacity="0.7843137254901961" d="M 140.5 68 L 143 68.5 L 139.5 72 L 138 70.5 L 140.5 68 Z " /><path fill="rgb(169,169,169)" stroke="rgb(169,169,169)" stroke-width="1" opacity="0.7843137254901961" d="M 136.5 73 L 139 73.5 Q 137 78 135 74.5 L 136.5 73 Z " /><path fill="rgb(169,169,169)" stroke="rgb(169,169,169)" stroke-width="1" opacity="0.7843137254901961" d="M 133.5 77 L 136 77.5 Q 134 82 132 78.5 L 133.5 77 Z " /><path fill="rgb(169,169,169)" stroke="rgb(169,169,169)" stroke-width="1" opacity="0.7843137254901961" d="M 130.5 81 L 133 81.5 Q 131 86 129 82.5 L 130.5 81 Z " /><path fill="rgb(169,169,169)" stroke="rgb(169,169,169)" stroke-width="1" opacity="0.7843137254901961" d="M 127.5 85 L 130 85.5 L 126.5 89 L 125 87.5 L 127.5 85 Z " /><path fill="rgb(169,169,169)" stroke="rgb(169,169,169)" stroke-width="1" opacity="0.7843137254901961" d="M 123.5 90 L 126 90.5 Q 124 95 122 91.5 L 123.5 90 Z " /><path fill="rgb(169,169,169)" stroke="rgb(169,169,169)" stroke-width="1" opacity="0.7843137254901961" d="M 120.5 94 L 123 94.5 Q 121 99 119 95.5 L 120.5 94 Z " /><path fill="rgb(169,169,169)" stroke="rgb(169,169,169)" stroke-width="1" opacity="0.7843137254901961" d="M 117.5 98 L 120 98.5 Q 117.9 101.8 117.5 98 Z " /><path fill="rgb(169,169,169)" stroke="rgb(169,169,169)" stroke-width="1" opacity="0.7843137254901961" d="M 116.5 100 L 117.5 102 L 115 101.5 L 116.5 100 Z " /><path fill="rgb(169,169,169)" stroke="rgb(169,169,169)" stroke-width="1" opacity="0.7843137254901961" d="M 165.5 121 L 171 121.5 L 165.5 122 L 165.5 121 Z " /><path fill="rgb(194,194,194)" stroke="rgb(194,194,194)" stroke-width="1" opacity="0.9803921568627451" d="M 115.5 38 L 115.5 41 Q 112.5 39.5 115.5 38 Z " /><path fill="rgb(194,194,194)" stroke="rgb(194,194,194)" stroke-width="1" opacity="0.9803921568627451" d="M 173.5 38 L 174 40.5 L 174 120.5 L 172.5 122 L 171 121.5 L 173 119.5 L 173 41.5 L 171.5 39 L 173.5 38 Z " /><path fill="rgb(194,194,194)" stroke="rgb(194,194,194)" stroke-width="1" opacity="0.9803921568627451" d="M 160.5 60 L 161 61.5 L 159 62.5 L 160.5 60 Z " /><path fill="rgb(194,194,194)" stroke="rgb(194,194,194)" stroke-width="1" opacity="0.9803921568627451" d="M 158.5 64 L 155.5 68 L 158.5 64 Z " /><path fill="rgb(194,194,194)" stroke="rgb(194,194,194)" stroke-width="1" opacity="0.9803921568627451" d="M 154.5 69 L 152.5 72 L 154.5 69 Z " /><path fill="rgb(194,194,194)" stroke="rgb(194,194,194)" stroke-width="1" opacity="0.9803921568627451" d="M 151.5 73 L 149.5 76 L 151.5 73 Z " /><path fill="rgb(194,194,194)" stroke="rgb(194,194,194)" stroke-width="1" opacity="0.9803921568627451" d="M 148.5 77 L 146.5 82 L 145 80.5 L 148.5 77 Z " /><path fill="rgb(194,194,194)" stroke="rgb(194,194,194)" stroke-width="1" opacity="0.9803921568627451" d="M 144.5 82 Q 147.5 83.5 144.5 85 L 142 84.5 L 144.5 82 Z " /><path fill="rgb(194,194,194)" stroke="rgb(194,194,194)" stroke-width="1" opacity="0.9803921568627451" d="M 141.5 86 Q 144.5 87.5 141.5 89 L 140.5 88 L 138 89.5 L 141.5 86 Z " /><path fill="rgb(194,194,194)" stroke="rgb(194,194,194)" stroke-width="1" opacity="0.9803921568627451" d="M 137.5 91 L 135.5 94 L 137.5 91 Z " /><path fill="rgb(194,194,194)" stroke="rgb(194,194,194)" stroke-width="1" opacity="0.9803921568627451" d="M 134.5 95 L 132.5 98 L 134.5 95 Z " /><path fill="rgb(194,194,194)" stroke="rgb(194,194,194)" stroke-width="1" opacity="0.9803921568627451" d="M 131.5 99 L 128.5 103 L 131.5 99 Z " /><path fill="rgb(194,194,194)" stroke="rgb(194,194,194)" stroke-width="1" opacity="0.9803921568627451" d="M 127.5 104 L 129 104.5 L 124.5 108 L 127.5 104 Z " /><path fill="rgb(194,194,194)" stroke="rgb(194,194,194)" stroke-width="1" opacity="0.9803921568627451" d="M 123.5 109 L 121.5 112 L 123.5 109 Z " /><path fill="rgb(194,194,194)" stroke="rgb(194,194,194)" stroke-width="1" opacity="0.9803921568627451" d="M 120.5 113 L 117.5 117 L 120.5 113 Z " /><path fill="rgb(194,194,194)" stroke="rgb(194,194,194)" stroke-width="1" opacity="0.9803921568627451" d="M 116.5 118 L 114.5 121 L 116.5 118 Z " /><path fill="rgb(194,194,194)" stroke="rgb(194,194,194)" stroke-width="1" opacity="0.9803921568627451" d="M 103.5 119 L 104.5 121 L 103.5 119 Z " /><path fill="rgb(191,57,43)" stroke="rgb(191,57,43)" stroke-width="1" opacity="0.9882352941176471" d="M 23 39 L 76.5 39 L 77.5 40 L 79 39.5 L 78 41.5 L 79 42.5 L 79 110.5 L 80.5 112 L 88.5 112 L 90 113.5 L 90 136.5 L 89 137.5 L 89.5 139 L 87.5 139 Q 82.7 140.3 81.5 138 L 80 138.5 L 80 121.5 L 78.5 120 L 14.5 120 L 14 121.5 L 13 122.5 L 13 137.5 L 11.5 139 L 3.5 139 L 3 138.5 L 3 111 L 9.5 112 L 13 109.5 Q 11.9 106.2 14.5 107 L 18 101.5 L 21 87.5 L 23 39 Z M 32 49 L 30 93 L 28 102 L 23 111 L 25 112 L 67 112 L 68 111 L 68 51 L 67 49 L 32 49 Z " /><path fill="rgb(195,195,195)" stroke="rgb(195,195,195)" stroke-width="1" opacity="1" d="M 101.5 40 L 104.5 41 L 105.5 40 L 115 40 L 115 101.5 L 118 102 Q 139.7 69.5 165.5 40 Q 171.5 38.5 173 41.5 L 173 119.5 L 171.5 121 L 164.5 121 L 164 120.5 L 164 59.5 L 161.5 59 L 113.5 120 Q 106.7 121.8 105 118.5 L 105 44.5 L 103.5 43 L 100 41.5 L 101.5 40 Z " /></svg>