<svg width="180" height="180" version="1.1" xmlns="http://www.w3.org/2000/svg"><path fill="rgb(0,0,0)" stroke="rgb(0,0,0)" stroke-width="1" opacity="0" d="M 0 0 L 180 0 L 180 180 L 0 180 L 0 0 Z M 24 38 L 22 40 L 20 88 L 15 106 L 11 110 Q 6 109 5 111 L 3 112 L 3 139 L 5 140 L 14 140 L 16 137 L 16 122 L 17 121 L 78 121 L 79 123 L 79 139 L 81 140 L 90 140 L 91 139 L 91 111 Q 88 109 80 110 L 80 41 L 79 40 L 79 38 L 24 38 Z M 105 38 L 99 39 Q 98 44 101 45 L 103 46 L 103 120 L 105 121 L 116 121 L 139 91 L 143 88 Q 142 84 145 85 L 161 63 L 161 120 L 164 122 L 174 122 L 174 39 L 174 38 L 165 38 Q 139 67 117 100 L 116 100 L 116 39 L 116 38 L 105 38 Z " /><path fill="rgb(0,0,0)" stroke="rgb(0,0,0)" stroke-width="1" opacity="0" d="M 34 51 L 67 51 L 67 110 L 26 109.5 L 30 101.5 L 32 92.5 L 34 51 Z " /><path fill="rgb(130,81,77)" stroke="rgb(130,81,77)" stroke-width="1" opacity="0.9019607843137255" d="M 23.5 38 L 79 38.5 L 78.5 40 L 80 40.5 L 80 109.5 L 80.5 110 L 88.5 110 L 91 111 L 91 138.5 L 89.5 140 L 81.5 140 L 81 138.5 L 82.5 139 Q 88.8 140.3 90 136.5 L 90 113.5 L 88.5 112 L 80.5 112 L 79 110.5 L 79 42.5 L 76.5 39 L 23.5 39 L 23 39.5 L 23 55.5 L 22 56.5 L 22 79.5 L 19.5 93 L 19 88.5 L 21 79.5 L 22 39.5 L 23.5 38 Z " /><path fill="rgb(130,81,77)" stroke="rgb(130,81,77)" stroke-width="1" opacity="0.9019607843137255" d="M 164.5 39 L 160 44.5 L 117.5 101 L 117 99.5 L 154 50.5 L 164.5 39 Z " /><path fill="rgb(130,81,77)" stroke="rgb(130,81,77)" stroke-width="1" opacity="0.9019607843137255" d="M 99.5 41 L 100 43 L 104 44.5 L 104 117.5 L 106 120.5 L 104 119.5 L 103 117.5 L 103 45 L 99 43.5 L 99.5 41 Z " /><path fill="rgb(130,81,77)" stroke="rgb(130,81,77)" stroke-width="1" opacity="0.9019607843137255" d="M 115.5 41 L 116 99.5 L 115 99.5 L 115.5 41 Z " /><path fill="rgb(130,81,77)" stroke="rgb(130,81,77)" stroke-width="1" opacity="0.9019607843137255" d="M 32 49 L 66.5 49 L 68 50.5 L 68 110.5 L 66.5 112 L 24.5 112 L 23 110.5 L 28 101.5 L 31.5 93 L 33.5 49 L 32 49 Z " /><path fill="rgb(130,81,77)" stroke="rgb(130,81,77)" stroke-width="1" opacity="0.9019607843137255" d="M 174 39 L 174 121.5 L 172.5 122 L 165 122 L 162.5 120.5 L 162.5 65.5 L 161.5 64 L 146 85 L 144 85 L 143 87.5 L 139.5 90.5 L 116.5 121 L 105 121 L 103.5 119.5 L 103.5 46 L 101 44.5 L 99.5 41 L 104.5 39 L 116 39 L 116 100 L 117 101 L 140 70.5 L 143 68.5 L 144.5 67 L 161.5 46 L 164.5 39 L 174 39 Z " /><path fill="rgb(26,26,46)" stroke="rgb(26,26,46)" stroke-width="1" opacity="0.9019607843137255" d="M 24 38 L 79 38 L 80 40 L 80 110 L 91 110 L 91 139 L 90 140 L 81 140 L 79 138 L 79 122 L 17 122 L 16 137 L 14 140 L 5 140 L 3 138 L 3 112 L 5 110 L 16 110 L 20 88 L 22 40 L 24 38 Z M 34 50 L 32 93 L 28 102 L 26 110 L 67 110 L 67 50 L 34 50 Z " /><path fill="rgb(26,26,46)" stroke="rgb(26,26,46)" stroke-width="1" opacity="0.9019607843137255" d="M 165 38 L 174 38 L 174 122 L 164 122 L 162 120 L 162 63 L 146 85 L 144 85 L 143 88 L 139 91 L 116 121 L 104 121 L 103 119 L 103 45 L 101 44 L 99 39 L 105 38 L 116 38 L 116 100 L 117 100 L 140 70 L 143 68 L 145 66 L 162 44 L 165 38 Z " /></svg>
